<svg xmlns="http://www.w3.org/2000/svg" xmlns:xlink="http://www.w3.org/1999/xlink" width="200" zoomAndPan="magnify" viewBox="0 0 150 56.249996" height="75" preserveAspectRatio="xMidYMid meet" version="1.0"><defs><g/><clipPath id="5643573917"><path d="M 0.988281 0 L 149.011719 0 L 149.011719 55.511719 L 0.988281 55.511719 Z M 0.988281 0 " clip-rule="nonzero"/></clipPath></defs><g clip-path="url(#5643573917)"><path stroke-linecap="butt" transform="matrix(0.634179, 0, 0, 0.634179, -1.830457, -7.759077)" fill="none" stroke-linejoin="miter" d="M 21.592869 83.999658 L 21.592869 28.003269 L 57.02255 28.003269 L 57.02255 38.807104 L 34.226088 38.807104 L 34.226088 50.40552 L 53.65944 50.40552 L 53.65944 61.209355 L 34.226088 61.209355 L 34.226088 73.121908 L 57.897205 73.121908 L 57.897205 83.999658 Z M 66.55136 83.999658 L 66.55136 28.003269 L 101.981041 28.003269 L 101.981041 38.807104 L 79.184579 38.807104 L 79.184579 50.40552 L 98.617932 50.40552 L 98.617932 61.209355 L 79.184579 61.209355 L 79.184579 73.121908 L 102.855696 73.121908 L 102.855696 83.999658 Z M 130.4566 85.034461 C 126.939502 85.034461 123.656467 84.23372 120.613653 82.63224 C 117.576999 81.030759 115.125502 78.776367 113.246842 75.875223 C 111.38666 72.974079 110.45657 69.598651 110.45657 65.755097 C 110.45657 63.673172 110.72143 61.726757 111.25731 59.915852 C 111.787031 58.111106 112.489218 56.429551 113.345395 54.877347 L 128.226846 28.003269 L 142.855757 28.003269 L 130.709141 47.769237 L 131.023278 48.083373 C 131.713146 47.806194 132.563163 47.670684 133.579487 47.670684 C 135.334957 47.670684 137.201298 48.021778 139.166191 48.723965 C 141.143404 49.413834 143.003586 50.497913 144.734417 51.970044 C 146.477567 53.429855 147.894261 55.290036 148.99066 57.556748 C 150.087058 59.817299 150.629098 62.552135 150.629098 65.755097 C 150.629098 69.549374 149.680528 72.894005 147.77723 75.795149 C 145.89241 78.702452 143.410115 80.969164 140.336504 82.595283 C 137.275212 84.221401 133.986017 85.034461 130.4566 85.034461 Z M 130.4566 73.121908 C 132.643237 73.121908 134.429504 72.407401 135.809241 70.972228 C 137.201298 69.524736 137.897326 67.787745 137.897326 65.755097 C 137.897326 63.673172 137.201298 61.905384 135.809241 60.445572 C 134.429504 58.973442 132.643237 58.240457 130.4566 58.240457 C 128.331558 58.240457 126.576089 58.973442 125.184033 60.445572 C 123.804296 61.905384 123.108267 63.673172 123.108267 65.755097 C 123.108267 67.843181 123.804296 69.592491 125.184033 71.009186 C 126.576089 72.41972 128.331558 73.121908 130.4566 73.121908 Z M 160.632192 83.999658 L 160.632192 28.003269 L 176.215832 28.003269 L 191.331346 65.989159 L 191.824109 65.989159 L 205.10408 28.003269 L 220.786272 28.003269 L 220.786272 83.999658 L 208.541104 83.999658 L 208.541104 52.321137 L 208.072979 52.321137 L 196.394489 83.999658 L 186.212767 83.999658 L 173.265411 51.033793 L 172.778808 51.033793 L 172.778808 83.999658 Z M 160.632192 83.999658 " stroke="#0d73ea" stroke-width="6" stroke-opacity="1" stroke-miterlimit="4"/></g><g fill="#ffffff" fill-opacity="1"><g transform="translate(8.356039, 45.511936)"><g><path d="M 3.5 0 L 3.5 -35.515625 L 25.96875 -35.515625 L 25.96875 -28.671875 L 11.515625 -28.671875 L 11.515625 -21.3125 L 23.84375 -21.3125 L 23.84375 -14.453125 L 11.515625 -14.453125 L 11.515625 -6.90625 L 26.53125 -6.90625 L 26.53125 0 Z M 3.5 0 "/></g></g></g><g fill="#ffffff" fill-opacity="1"><g transform="translate(36.86869, 45.511936)"><g><path d="M 3.5 0 L 3.5 -35.515625 L 25.96875 -35.515625 L 25.96875 -28.671875 L 11.515625 -28.671875 L 11.515625 -21.3125 L 23.84375 -21.3125 L 23.84375 -14.453125 L 11.515625 -14.453125 L 11.515625 -6.90625 L 26.53125 -6.90625 L 26.53125 0 Z M 3.5 0 "/></g></g></g><g fill="#ffffff" fill-opacity="1"><g transform="translate(65.381341, 45.511936)"><g><path d="M 15.53125 0.65625 C 13.289062 0.65625 11.207031 0.148438 9.28125 -0.859375 C 7.351562 -1.878906 5.796875 -3.3125 4.609375 -5.15625 C 3.429688 -7 2.84375 -9.132812 2.84375 -11.5625 C 2.84375 -12.882812 3.007812 -14.117188 3.34375 -15.265625 C 3.6875 -16.421875 4.128906 -17.488281 4.671875 -18.46875 L 14.109375 -35.515625 L 23.390625 -35.515625 L 15.671875 -22.984375 L 15.875 -22.78125 C 16.320312 -22.945312 16.863281 -23.03125 17.5 -23.03125 C 18.613281 -23.03125 19.796875 -22.8125 21.046875 -22.375 C 22.304688 -21.9375 23.484375 -21.25 24.578125 -20.3125 C 25.679688 -19.382812 26.578125 -18.203125 27.265625 -16.765625 C 27.960938 -15.328125 28.3125 -13.59375 28.3125 -11.5625 C 28.3125 -9.164062 27.707031 -7.046875 26.5 -5.203125 C 25.300781 -3.359375 23.726562 -1.921875 21.78125 -0.890625 C 19.84375 0.140625 17.757812 0.65625 15.53125 0.65625 Z M 15.53125 -6.90625 C 16.914062 -6.90625 18.046875 -7.359375 18.921875 -8.265625 C 19.804688 -9.179688 20.25 -10.28125 20.25 -11.5625 C 20.25 -12.882812 19.804688 -14.007812 18.921875 -14.9375 C 18.046875 -15.875 16.914062 -16.34375 15.53125 -16.34375 C 14.175781 -16.34375 13.054688 -15.875 12.171875 -14.9375 C 11.296875 -14.007812 10.859375 -12.882812 10.859375 -11.5625 C 10.859375 -10.25 11.296875 -9.144531 12.171875 -8.25 C 13.054688 -7.351562 14.175781 -6.90625 15.53125 -6.90625 Z M 15.53125 -6.90625 "/></g></g></g><g fill="#ffffff" fill-opacity="1"><g transform="translate(96.532167, 45.511936)"><g><path d="M 3.5 0 L 3.5 -35.515625 L 13.390625 -35.515625 L 22.984375 -11.421875 L 23.28125 -11.421875 L 31.703125 -35.515625 L 41.65625 -35.515625 L 41.65625 0 L 33.890625 0 L 33.890625 -20.09375 L 33.59375 -20.09375 L 26.171875 0 L 19.734375 0 L 11.515625 -20.90625 L 11.21875 -20.90625 L 11.21875 0 Z M 3.5 0 "/></g></g></g></svg>